<?xml version="1.0" encoding="UTF-8"?>
<svg id="Calque_2" data-name="Calque 2" xmlns="http://www.w3.org/2000/svg" viewBox="0 0 216.96 217.62">
  <defs>
    <style>
      .cls-1 {
        fill: #fff;
      }
    </style>
  </defs>
  <g id="Calque_1-2" data-name="Calque 1">
    <g>
      <path class="cls-1" d="M66.84,57.74l-38.48.1c-5.11.01-9.64-3.83-9.64-9.17V10.01c0-4.95,4.25-8.41,8.47-8.83s9.68,2.86,9.86,8.07l.58,16.59C76.66-6.93,132.57-8.81,173.4,21.78c39.87,29.86,55.17,83.87,34.07,131.39-19.66,44.28-67.51,71.41-117.81,62.88C43.06,208.15,4.4,169.15.01,119.54c-.33-3.74,5.18-6.44,8.01-6.67,3.4-.27,9.15,1.49,9.65,5.77,6.75,57.52,63.62,94.31,118.48,76.6,53.79-17.37,79.25-79.84,51.61-130.2S94.8,1.84,50.01,39.02l17.53.62c4.66.16,7.76,4.7,7.85,8.73.1,4.02-3.19,9.36-8.56,9.38Z"/>
      <path class="cls-1" d="M143.56,154.25l-45.04-21.45c-2.75-1.31-4.72-4.77-4.72-7.91V59.86c0-5.27,2.98-9.08,8.12-9.49,3.5-.28,9.31,2.52,9.33,7.73l.18,61.56,38.6,18.38c4.45,2.12,6.5,6.32,5.06,10.92-1.23,3.95-6.37,7.75-11.52,5.29Z"/>
    </g>
  </g>
</svg>