<?xml version="1.0" encoding="UTF-8"?>
<svg id="Calque_2" data-name="Calque 2" xmlns="http://www.w3.org/2000/svg" viewBox="0 0 266.1 266.03">
  <defs>
    <style>
      .cls-1 {
        fill: #fff;
      }
    </style>
  </defs>
  <g id="Calque_1-2" data-name="Calque 1">
    <path class="cls-1" d="M129.91,110.37c-14.11,10.53-24.11,24.33-30.11,40.51-1.11,3-3.16,4.5-6.18,4.15-2.65-.31-5.1-3.49-3.94-6.64,5.29-14.39,12.81-27.17,23.97-37.86,14.98-14.34,34.13-24.06,55.48-24.15l92.74-.39c2.4-.01,4.22,2.83,4.22,5.01v83.99c0,2.91-2.2,5.05-5.09,5.05l-79.24.05-.09,81.56c0,2.08-2.64,4.18-4.58,4.37h-87.98c-2.52-.35-4.66-2.39-4.66-5.04l-.03-80.9H5.04c-2.86.01-4.86-2.35-5.04-5.07l.07-84.92c.62-3.01,3.04-4.08,6.07-4.08l78.26-.07.09-81.59c0-2.04,2.65-4.15,4.58-4.35h88.04c1.86.01,4.58,2.46,4.58,4.31l.04,59.38c0,2.84-2.61,5.33-5.11,5.29-2.68-.04-4.92-2.41-5.16-5.3V10.01s-76.74.05-76.74.05v80.91c-.28,2.65-1.97,4.61-4.62,5.12l-80-.08.05,73.92h79.88c2.74.51,4.48,2.37,4.69,5.13l.02,80.9h76.74s-.03-80.86-.03-80.86c.33-3.64,3.05-5.52,6.68-5.18l77.96.1v-73.98s-83.95.01-83.95.01c-15.47,1.21-29.29,5.3-42.22,14.34Z"/>
  </g>
</svg>